{
  "accessors": [
    {
      "bufferView": 2,
      "componentType": 5126,
      "count": 65533,
      "max": [
        20.510715484619141,
        52.786018371582031,
        247.25347900390625
      ],
      "min": [
        -377.76296997070312,
        -169.49079895019531,
        -210.58927917480469
      ],
      "type": "VEC3"
    },
    {
      "bufferView": 2,
      "byteOffset": 786396,
      "componentType": 5126,
      "count": 65533,
      "max": [
        0.9999808669090271,
        0.99997448921203613,
        1
      ],
      "min": [
        -1,
        -0.99999988079071045,
        -0.99999332427978516
      ],
      "type": "VEC3"
    },
    {
      "bufferView": 1,
      "componentType": 5126,
      "count": 65533,
      "max": [
        0.99944597482681274,
        0.99996399879455566
      ],
      "min": [
        5.8000001445179805e-05,
        1.5999999959603883e-05
      ],
      "type": "VEC2"
    },
    {
      "bufferView": 0,
      "componentType": 5125,
      "count": 201405,
      "max": [
        65532
      ],
      "min": [
        0
      ],
      "type": "SCALAR"
    },
    {
      "bufferView": 2,
      "byteOffset": 1572792,
      "componentType": 5126,
      "count": 65532,
      "max": [
        307.61456298828125,
        135.07875061035156,
        247.25346374511719
      ],
      "min": [
        -377.76296997070312,
        -223.90287780761719,
        -276.82183837890625
      ],
      "type": "VEC3"
    },
    {
      "bufferView": 2,
      "byteOffset": 2359176,
      "componentType": 5126,
      "count": 65532,
      "max": [
        0.99998867511749268,
        0.99998980760574341,
        0.99999868869781494
      ],
      "min": [
        -0.9999997615814209,
        -0.99999707937240601,
        -0.99999982118606567
      ],
      "type": "VEC3"
    },
    {
      "bufferView": 1,
      "byteOffset": 524264,
      "componentType": 5126,
      "count": 65532,
      "max": [
        0.99959999322891235,
        0.9999849796295166
      ],
      "min": [
        3.0999999580672011e-05,
        0.00024900000425986946
      ],
      "type": "VEC2"
    },
    {
      "bufferView": 0,
      "byteOffset": 805620,
      "componentType": 5125,
      "count": 175320,
      "max": [
        65531
      ],
      "min": [
        0
      ],
      "type": "SCALAR"
    },
    {
      "bufferView": 2,
      "byteOffset": 3145560,
      "componentType": 5126,
      "count": 65532,
      "max": [
        367.56692504882812,
        138.56941223144531,
        247.25346374511719
      ],
      "min": [
        -18.640750885009766,
        -147.90748596191406,
        -276.82183837890625
      ],
      "type": "VEC3"
    },
    {
      "bufferView": 2,
      "byteOffset": 3931944,
      "componentType": 5126,
      "count": 65532,
      "max": [
        0.99992316961288452,
        0.99978864192962646,
        0.99999719858169556
      ],
      "min": [
        -0.99998766183853149,
        -0.99999803304672241,
        -0.9999992847442627
      ],
      "type": "VEC3"
    },
    {
      "bufferView": 1,
      "byteOffset": 1048520,
      "componentType": 5126,
      "count": 65532,
      "max": [
        0.99950200319290161,
        0.99995899200439453
      ],
      "min": [
        0.00024900000425986946,
        5.7000001106644049e-05
      ],
      "type": "VEC2"
    },
    {
      "bufferView": 0,
      "byteOffset": 1506900,
      "componentType": 5125,
      "count": 190782,
      "max": [
        65531
      ],
      "min": [
        0
      ],
      "type": "SCALAR"
    },
    {
      "bufferView": 2,
      "byteOffset": 4718328,
      "componentType": 5126,
      "count": 65532,
      "max": [
        367.56695556640625,
        53.391677856445312,
        247.25346374511719
      ],
      "min": [
        -377.762451171875,
        -210.00169372558594,
        -276.82183837890625
      ],
      "type": "VEC3"
    },
    {
      "bufferView": 2,
      "byteOffset": 5504712,
      "componentType": 5126,
      "count": 65532,
      "max": [
        1,
        0.99988692998886108,
        0.99995803833007812
      ],
      "min": [
        -0.9999731183052063,
        -0.99999541044235229,
        -1
      ],
      "type": "VEC3"
    },
    {
      "bufferView": 1,
      "byteOffset": 1572776,
      "componentType": 5126,
      "count": 65532,
      "max": [
        0.99987500905990601,
        0.99999797344207764
      ],
      "min": [
        0.00014200000441633165,
        9.0000003183376975e-06
      ],
      "type": "VEC2"
    },
    {
      "bufferView": 0,
      "byteOffset": 2270028,
      "componentType": 5125,
      "count": 178512,
      "max": [
        65531
      ],
      "min": [
        0
      ],
      "type": "SCALAR"
    },
    {
      "bufferView": 2,
      "byteOffset": 6291096,
      "componentType": 5126,
      "count": 65532,
      "max": [
        367.56695556640625,
        180.95010375976562,
        247.25349426269531
      ],
      "min": [
        -377.762939453125,
        -212.24507141113281,
        -276.82183837890625
      ],
      "type": "VEC3"
    },
    {
      "bufferView": 2,
      "byteOffset": 7077480,
      "componentType": 5126,
      "count": 65532,
      "max": [
        1,
        0.99999630451202393,
        1
      ],
      "min": [
        -1,
        -0.9999992847442627,
        -1
      ],
      "type": "VEC3"
    },
    {
      "bufferView": 1,
      "byteOffset": 2097032,
      "componentType": 5126,
      "count": 65532,
      "max": [
        0.99962198734283447,
        0.99999797344207764
      ],
      "min": [
        9.9999997473787516e-06,
        0
      ],
      "type": "VEC2"
    },
    {
      "bufferView": 0,
      "byteOffset": 2984076,
      "componentType": 5125,
      "count": 116538,
      "max": [
        65531
      ],
      "min": [
        0
      ],
      "type": "SCALAR"
    },
    {
      "bufferView": 2,
      "byteOffset": 7863864,
      "componentType": 5126,
      "count": 4080,
      "max": [
        367.56695556640625,
        180.95010375976562,
        247.25349426269531
      ],
      "min": [
        -377.76296997070312,
        -208.92033386230469,
        -276.82183837890625
      ],
      "type": "VEC3"
    },
    {
      "bufferView": 2,
      "byteOffset": 7912824,
      "componentType": 5126,
      "count": 4080,
      "max": [
        1,
        1,
        1
      ],
      "min": [
        -1,
        -0.99914836883544922,
        -1
      ],
      "type": "VEC3"
    },
    {
      "bufferView": 1,
      "byteOffset": 2621288,
      "componentType": 5126,
      "count": 4080,
      "max": [
        0.99706697463989258,
        0.99910497665405273
      ],
      "min": [
        0.010328999720513821,
        0.0036929999478161335
      ],
      "type": "VEC2"
    },
    {
      "bufferView": 0,
      "byteOffset": 3450228,
      "componentType": 5125,
      "count": 10839,
      "max": [
        4079
      ],
      "min": [
        0
      ],
      "type": "SCALAR"
    }
  ],
  "asset": {
    "extras": {
      "author": "artfletch (https://sketchfab.com/artfletch)",
      "license": "CC-BY-4.0 (http://creativecommons.org/licenses/by/4.0/)",
      "source": "https://sketchfab.com/3d-models/berry-pomeroy-castle-175fc5b0233b4f7aac26065aea104851",
      "title": "Berry Pomeroy Castle"
    },
    "generator": "Sketchfab-8.84.0",
    "version": "2.0"
  },
  "bufferViews": [
    {
      "buffer": 0,
      "byteLength": 3493584,
      "byteOffset": 0,
      "name": "floatBufferViews",
      "target": 34963
    },
    {
      "buffer": 0,
      "byteLength": 2653928,
      "byteOffset": 3493584,
      "byteStride": 8,
      "name": "floatBufferViews",
      "target": 34962
    },
    {
      "buffer": 0,
      "byteLength": 7961784,
      "byteOffset": 6147512,
      "byteStride": 12,
      "name": "floatBufferViews",
      "target": 34962
    }
  ],
  "buffers": [
    {
      "byteLength": 14109296,
      "uri": "scene.bin"
    }
  ],
  "extensionsUsed": [
    "KHR_materials_unlit"
  ],
  "images": [
    {
      "uri": "textures/BerryPomeroyCastle01_BerryPomeroyCastle01_baseColor.jpeg"
    }
  ],
  "materials": [
    {
      "doubleSided": true,
      "emissiveFactor": [
        0,
        0,
        0
      ],
      "extensions": {
        "KHR_materials_unlit": {}
      },
      "name": "BerryPomeroyCastle01_BerryPomeroyCastle01",
      "pbrMetallicRoughness": {
        "baseColorFactor": [
          1,
          1,
          1,
          1
        ],
        "baseColorTexture": {
          "index": 0,
          "texCoord": 0
        },
        "metallicFactor": 0,
        "roughnessFactor": 1
      }
    }
  ],
  "meshes": [
    {
      "primitives": [
        {
          "attributes": {
            "NORMAL": 1,
            "POSITION": 0,
            "TEXCOORD_0": 2
          },
          "indices": 3,
          "material": 0,
          "mode": 4
        }
      ]
    },
    {
      "primitives": [
        {
          "attributes": {
            "NORMAL": 5,
            "POSITION": 4,
            "TEXCOORD_0": 6
          },
          "indices": 7,
          "material": 0,
          "mode": 4
        }
      ]
    },
    {
      "primitives": [
        {
          "attributes": {
            "NORMAL": 9,
            "POSITION": 8,
            "TEXCOORD_0": 10
          },
          "indices": 11,
          "material": 0,
          "mode": 4
        }
      ]
    },
    {
      "primitives": [
        {
          "attributes": {
            "NORMAL": 13,
            "POSITION": 12,
            "TEXCOORD_0": 14
          },
          "indices": 15,
          "material": 0,
          "mode": 4
        }
      ]
    },
    {
      "primitives": [
        {
          "attributes": {
            "NORMAL": 17,
            "POSITION": 16,
            "TEXCOORD_0": 18
          },
          "indices": 19,
          "material": 0,
          "mode": 4
        }
      ]
    },
    {
      "primitives": [
        {
          "attributes": {
            "NORMAL": 21,
            "POSITION": 20,
            "TEXCOORD_0": 22
          },
          "indices": 23,
          "material": 0,
          "mode": 4
        }
      ]
    }
  ],
  "nodes": [
    {
      "children": [
        1
      ],
      "name": "RootNode (gltf orientation matrix)",
      "rotation": [
        -0.70710678118654746,
        -0,
        -0,
        0.70710678118654757
      ]
    },
    {
      "children": [
        2
      ],
      "matrix": [
        1,
        0,
        0,
        0,
        0,
        2.2204460492503131e-16,
        -1,
        0,
        0,
        1,
        2.2204460492503131e-16,
        0,
        0,
        -6.6921768188476562,
        -36.260978698730469,
        1
      ],
      "name": "RootNode (model correction matrix)"
    },
    {
      "children": [
        3,
        4,
        5,
        6,
        7,
        8
      ],
      "name": "BerryPomeroyCastle01.obj.cleaner.materialmerger.gles"
    },
    {
      "mesh": 0,
      "name": ""
    },
    {
      "mesh": 1,
      "name": ""
    },
    {
      "mesh": 2,
      "name": ""
    },
    {
      "mesh": 3,
      "name": ""
    },
    {
      "mesh": 4,
      "name": ""
    },
    {
      "mesh": 5,
      "name": ""
    }
  ],
  "samplers": [
    {
      "magFilter": 9729,
      "minFilter": 9987,
      "wrapS": 10497,
      "wrapT": 10497
    }
  ],
  "scene": 0,
  "scenes": [
    {
      "name": "OSG_Scene",
      "nodes": [
        0
      ]
    }
  ],
  "textures": [
    {
      "sampler": 0,
      "source": 0
    }
  ]
}

