{
  "accessors": [
    {
      "bufferView": 2,
      "componentType": 5126,
      "count": 65532,
      "max": [
        97.840141296386719,
        119.87001800537109,
        -11.475093841552734
      ],
      "min": [
        -49.694919586181641,
        -62.050136566162109,
        -74.840896606445312
      ],
      "type": "VEC3"
    },
    {
      "bufferView": 2,
      "byteOffset": 786384,
      "componentType": 5126,
      "count": 65532,
      "max": [
        0.99991798400878906,
        0.99990057945251465,
        0.99997961521148682
      ],
      "min": [
        -0.99991309642791748,
        -0.99986755847930908,
        -0.99976801872253418
      ],
      "type": "VEC3"
    },
    {
      "bufferView": 1,
      "componentType": 5126,
      "count": 65532,
      "max": [
        0.99983280897140503,
        0.99983251094818115
      ],
      "min": [
        0.00016718756523914635,
        0.00016718567349016666
      ],
      "type": "VEC2"
    },
    {
      "bufferView": 0,
      "componentType": 5125,
      "count": 292380,
      "max": [
        65531
      ],
      "min": [
        0
      ],
      "type": "SCALAR"
    },
    {
      "bufferView": 2,
      "byteOffset": 1572768,
      "componentType": 5126,
      "count": 65532,
      "max": [
        92.889213562011719,
        125.33538818359375,
        -18.31031608581543
      ],
      "min": [
        -61.211315155029297,
        -71.393402099609375,
        -72.587501525878906
      ],
      "type": "VEC3"
    },
    {
      "bufferView": 2,
      "byteOffset": 2359152,
      "componentType": 5126,
      "count": 65532,
      "max": [
        0.99994528293609619,
        0.99986279010772705,
        0.99999523162841797
      ],
      "min": [
        -0.99996042251586914,
        -0.99986755847930908,
        -0.99996471405029297
      ],
      "type": "VEC3"
    },
    {
      "bufferView": 1,
      "byteOffset": 524256,
      "componentType": 5126,
      "count": 65532,
      "max": [
        0.9998326301574707,
        0.99983304738998413
      ],
      "min": [
        0.0096332421526312828,
        0.0013851469848304987
      ],
      "type": "VEC2"
    },
    {
      "bufferView": 0,
      "byteOffset": 1169520,
      "componentType": 5125,
      "count": 263052,
      "max": [
        65531
      ],
      "min": [
        0
      ],
      "type": "SCALAR"
    },
    {
      "bufferView": 2,
      "byteOffset": 3145536,
      "componentType": 5126,
      "count": 65532,
      "max": [
        78.703697204589844,
        130.63986206054688,
        -18.777351379394531
      ],
      "min": [
        -62.174739837646484,
        -49.578807830810547,
        -70.912109375
      ],
      "type": "VEC3"
    },
    {
      "bufferView": 2,
      "byteOffset": 3931920,
      "componentType": 5126,
      "count": 65532,
      "max": [
        0.99991095066070557,
        0.9999309778213501,
        0.99998641014099121
      ],
      "min": [
        -0.99991309642791748,
        -0.99999284744262695,
        -0.99993908405303955
      ],
      "type": "VEC3"
    },
    {
      "bufferView": 1,
      "byteOffset": 1048512,
      "componentType": 5126,
      "count": 65532,
      "max": [
        0.99983304738998413,
        0.99983280897140503
      ],
      "min": [
        0.014320897869765759,
        0.010572429746389389
      ],
      "type": "VEC2"
    },
    {
      "bufferView": 0,
      "byteOffset": 2221728,
      "componentType": 5125,
      "count": 250692,
      "max": [
        65531
      ],
      "min": [
        0
      ],
      "type": "SCALAR"
    },
    {
      "bufferView": 2,
      "byteOffset": 4718304,
      "componentType": 5126,
      "count": 65532,
      "max": [
        65.532028198242188,
        129.14785766601562,
        -18.931228637695312
      ],
      "min": [
        -70.064903259277344,
        -37.02593994140625,
        -70.047210693359375
      ],
      "type": "VEC3"
    },
    {
      "bufferView": 2,
      "byteOffset": 5504688,
      "componentType": 5126,
      "count": 65532,
      "max": [
        0.99989211559295654,
        0.99993038177490234,
        0.99999892711639404
      ],
      "min": [
        -0.99995756149291992,
        -0.99999284744262695,
        -0.99994826316833496
      ],
      "type": "VEC3"
    },
    {
      "bufferView": 1,
      "byteOffset": 1572768,
      "componentType": 5126,
      "count": 65532,
      "max": [
        0.99983280897140503,
        0.99983268976211548
      ],
      "min": [
        0.014561758376657963,
        0.00016718567349016666
      ],
      "type": "VEC2"
    },
    {
      "bufferView": 0,
      "byteOffset": 3224496,
      "componentType": 5125,
      "count": 249492,
      "max": [
        65531
      ],
      "min": [
        0
      ],
      "type": "SCALAR"
    },
    {
      "bufferView": 2,
      "byteOffset": 6291072,
      "componentType": 5126,
      "count": 65532,
      "max": [
        26.173561096191406,
        139.7088623046875,
        -19.204582214355469
      ],
      "min": [
        -85.956863403320312,
        -23.197336196899414,
        -69.393035888671875
      ],
      "type": "VEC3"
    },
    {
      "bufferView": 2,
      "byteOffset": 7077456,
      "componentType": 5126,
      "count": 65532,
      "max": [
        0.99975967407226562,
        0.99990308284759521,
        0.99999117851257324
      ],
      "min": [
        -0.99983274936676025,
        -0.99978458881378174,
        -0.99994826316833496
      ],
      "type": "VEC3"
    },
    {
      "bufferView": 1,
      "byteOffset": 2097024,
      "componentType": 5126,
      "count": 65532,
      "max": [
        0.99983280897140503,
        0.99983304738998413
      ],
      "min": [
        0.0025393916293978691,
        0.00016718567349016666
      ],
      "type": "VEC2"
    },
    {
      "bufferView": 0,
      "byteOffset": 4222464,
      "componentType": 5125,
      "count": 234738,
      "max": [
        65531
      ],
      "min": [
        0
      ],
      "type": "SCALAR"
    },
    {
      "bufferView": 2,
      "byteOffset": 7863840,
      "componentType": 5126,
      "count": 6451,
      "max": [
        91.304237365722656,
        139.50067138671875,
        -19.487110137939453
      ],
      "min": [
        -86.0743408203125,
        -70.531700134277344,
        -73.222328186035156
      ],
      "type": "VEC3"
    },
    {
      "bufferView": 2,
      "byteOffset": 7941252,
      "componentType": 5126,
      "count": 6451,
      "max": [
        0.99942171573638916,
        0.99975442886352539,
        0.99997115135192871
      ],
      "min": [
        -0.99944126605987549,
        -0.99787229299545288,
        -0.99997103214263916
      ],
      "type": "VEC3"
    },
    {
      "bufferView": 1,
      "byteOffset": 2621280,
      "componentType": 5126,
      "count": 6451,
      "max": [
        0.99983280897140503,
        0.99983251094818115
      ],
      "min": [
        0.033658020198345184,
        0.0031651861499994993
      ],
      "type": "VEC2"
    },
    {
      "bufferView": 0,
      "byteOffset": 5161416,
      "componentType": 5125,
      "count": 17040,
      "max": [
        6450
      ],
      "min": [
        0
      ],
      "type": "SCALAR"
    }
  ],
  "asset": {
    "extras": {
      "author": "Chris Bibb (https://sketchfab.com/chrisbibb)",
      "license": "CC-BY-4.0 (http://creativecommons.org/licenses/by/4.0/)",
      "source": "https://sketchfab.com/3d-models/longstone-manor-remains-in-burrator-reservoir-37212c9c9dcf45b4bdb2b3e082131b83",
      "title": "Longstone Manor remains in Burrator Reservoir"
    },
    "generator": "Sketchfab-8.83.0",
    "version": "2.0"
  },
  "bufferViews": [
    {
      "buffer": 0,
      "byteLength": 5229576,
      "byteOffset": 0,
      "name": "floatBufferViews",
      "target": 34963
    },
    {
      "buffer": 0,
      "byteLength": 2672888,
      "byteOffset": 5229576,
      "byteStride": 8,
      "name": "floatBufferViews",
      "target": 34962
    },
    {
      "buffer": 0,
      "byteLength": 8018664,
      "byteOffset": 7902464,
      "byteStride": 12,
      "name": "floatBufferViews",
      "target": 34962
    }
  ],
  "buffers": [
    {
      "byteLength": 15921128,
      "uri": "scene.bin"
    }
  ],
  "extensionsUsed": [
    "KHR_materials_unlit"
  ],
  "images": [
    {
      "uri": "textures/texture_material_baseColor.jpeg"
    }
  ],
  "materials": [
    {
      "doubleSided": true,
      "emissiveFactor": [
        0,
        0,
        0
      ],
      "extensions": {
        "KHR_materials_unlit": {}
      },
      "name": "texture_material",
      "pbrMetallicRoughness": {
        "baseColorFactor": [
          1,
          1,
          1,
          1
        ],
        "baseColorTexture": {
          "index": 0,
          "texCoord": 0
        },
        "metallicFactor": 0,
        "roughnessFactor": 1
      }
    }
  ],
  "meshes": [
    {
      "name": "mesh_out_node_texture_material_0",
      "primitives": [
        {
          "attributes": {
            "NORMAL": 1,
            "POSITION": 0,
            "TEXCOORD_0": 2
          },
          "indices": 3,
          "material": 0,
          "mode": 4
        }
      ]
    },
    {
      "name": "mesh_out_node_texture_material_0",
      "primitives": [
        {
          "attributes": {
            "NORMAL": 5,
            "POSITION": 4,
            "TEXCOORD_0": 6
          },
          "indices": 7,
          "material": 0,
          "mode": 4
        }
      ]
    },
    {
      "name": "mesh_out_node_texture_material_0",
      "primitives": [
        {
          "attributes": {
            "NORMAL": 9,
            "POSITION": 8,
            "TEXCOORD_0": 10
          },
          "indices": 11,
          "material": 0,
          "mode": 4
        }
      ]
    },
    {
      "name": "mesh_out_node_texture_material_0",
      "primitives": [
        {
          "attributes": {
            "NORMAL": 13,
            "POSITION": 12,
            "TEXCOORD_0": 14
          },
          "indices": 15,
          "material": 0,
          "mode": 4
        }
      ]
    },
    {
      "name": "mesh_out_node_texture_material_0",
      "primitives": [
        {
          "attributes": {
            "NORMAL": 17,
            "POSITION": 16,
            "TEXCOORD_0": 18
          },
          "indices": 19,
          "material": 0,
          "mode": 4
        }
      ]
    },
    {
      "name": "mesh_out_node_texture_material_0",
      "primitives": [
        {
          "attributes": {
            "NORMAL": 21,
            "POSITION": 20,
            "TEXCOORD_0": 22
          },
          "indices": 23,
          "material": 0,
          "mode": 4
        }
      ]
    }
  ],
  "nodes": [
    {
      "children": [
        1
      ],
      "name": "RootNode (gltf orientation matrix)",
      "rotation": [
        -0.70710678118654746,
        -0,
        -0,
        0.70710678118654757
      ]
    },
    {
      "children": [
        2
      ],
      "name": "RootNode (model correction matrix)"
    },
    {
      "children": [
        3
      ],
      "matrix": [
        1,
        0,
        0,
        0,
        0,
        0,
        1,
        0,
        0,
        -1,
        0,
        0,
        0,
        0,
        0,
        1
      ],
      "name": "7f74c90ce98a429995f00eb8f015a39a.fbx"
    },
    {
      "children": [
        4,
        7,
        9
      ],
      "name": "RootNode"
    },
    {
      "children": [
        5
      ],
      "matrix": [
        -29.550514569473091,
        1.8023798343401727,
        -95.517119101714385,
        0,
        74.440056802802118,
        63.100956086964331,
        -21.839122787021314,
        0,
        59.878586866422523,
        -77.55656495964385,
        -19.988348269450352,
        0,
        462.95071411132812,
        7507.7666015625,
        -100.54537963867188,
        1
      ],
      "name": "Light"
    },
    {
      "children": [
        6
      ],
      "matrix": [
        1,
        0,
        0,
        0,
        0,
        2.2204460492503131e-16,
        1,
        0,
        0,
        -1,
        2.2204460492503131e-16,
        0,
        0,
        0,
        0,
        1
      ],
      "name": ""
    },
    {
      "name": ""
    },
    {
      "children": [
        8
      ],
      "matrix": [
        -74.103966587575485,
        -27.139446447307581,
        -61.417025787987917,
        0,
        -9.390387655030306,
        94.757595793231317,
        -30.542080138308268,
        0,
        66.486248527436175,
        -16.865596053160495,
        -72.767636354637503,
        0,
        757.8880615234375,
        7335.400390625,
        692.5791015625,
        1
      ],
      "name": "Camera"
    },
    {
      "name": ""
    },
    {
      "children": [
        10,
        11,
        12,
        13,
        14,
        15
      ],
      "matrix": [
        79.104879659565739,
        -5.0913531731105852,
        -60.963071911709633,
        0,
        -59.741321926706938,
        15.020885845503983,
        -78.774027717680553,
        0,
        13.167857399561544,
        98.734244876248454,
        8.8406119823130744,
        0,
        -77.325294494628906,
        7035.73388671875,
        0,
        1
      ],
      "name": "mesh_out_node"
    },
    {
      "mesh": 0,
      "name": "mesh_out_node_texture_material_0"
    },
    {
      "mesh": 1,
      "name": "mesh_out_node_texture_material_0"
    },
    {
      "mesh": 2,
      "name": "mesh_out_node_texture_material_0"
    },
    {
      "mesh": 3,
      "name": "mesh_out_node_texture_material_0"
    },
    {
      "mesh": 4,
      "name": "mesh_out_node_texture_material_0"
    },
    {
      "mesh": 5,
      "name": "mesh_out_node_texture_material_0"
    }
  ],
  "samplers": [
    {
      "magFilter": 9729,
      "minFilter": 9987,
      "wrapS": 10497,
      "wrapT": 10497
    }
  ],
  "scene": 0,
  "scenes": [
    {
      "name": "OSG_Scene",
      "nodes": [
        0
      ]
    }
  ],
  "textures": [
    {
      "sampler": 0,
      "source": 0
    }
  ]
}

